<?xml version="1.0"?><svg xmlns="http://www.w3.org/2000/svg" width="1.732in" height="2in" viewBox="0 0 1732 2000" role="img" aria-labelledby="rurl-title" aria-describedby="rurl-desc" xml:lang="en-US" lang="en-US">
<title id="rurl-title">rurl</title>
<desc id="rurl-desc">Logo of the rurl library for R, white text on a black background</desc>
<metadata id="rurl-metadata"><rdf:RDF xmlns:rdf="http://www.w3.org/1999/02/22-rdf-syntax-ns#" xmlns:dc="http://purl.org/dc/elements/1.1/" xmlns:dcterms="http://purl.org/dc/terms/" xmlns:cc="http://creativecommons.org/ns#">
<cc:Work rdf:about="">
<dc:title>rurl</dc:title>
<dc:description>URL library for R</dc:description>
<dc:description>Logo of the rurl library for R, white text on a black background</dc:description>
<dc:creator><cc:Agent><dc:title>Bart Turczynski</dc:title></cc:Agent></dc:creator>
<dc:publisher><cc:Agent><dc:title>Bart Turczynski</dc:title></cc:Agent></dc:publisher>
<dc:rights><cc:Agent><dc:title>&#169; 2026 Bart Turczynski. MIT License.</dc:title></cc:Agent></dc:rights>
<dc:date>2026-10-04</dc:date>
<dc:type rdf:resource="http://purl.org/dc/dcmitype/StillImage"/>
<dc:format>image/svg+xml</dc:format>
<dc:language>en-US</dc:language>
<dc:identifier>rurl</dc:identifier>
<dc:identifier>https://gitlab.com/bart-turczynski/rurl/-/raw/main/man/figures/logo.svg</dc:identifier>
<dc:source>https://gitlab.com/bart-turczynski/rurl</dc:source>
<dc:source>https://github.com/bart-turczynski/rurl</dc:source>
<dc:source>https://CRAN.R-project.org/package=rurl</dc:source>
<dc:relation>https://gitlab.com/bart-turczynski/rurl</dc:relation>
<dc:relation>https://github.com/bart-turczynski/rurl</dc:relation>
<dc:relation>https://CRAN.R-project.org/package=rurl</dc:relation>
<dc:relation>https://bart-turczynski.r-universe.dev/rurl</dc:relation>
<dc:relation>https://bart-turczynski.gitlab.io/rurl/</dc:relation>
<dc:relation>https://doi.org/10.5281/zenodo.20972584</dc:relation>
<dc:subject><rdf:Bag><rdf:li>R</rdf:li><rdf:li>rstats</rdf:li><rdf:li>R package</rdf:li><rdf:li>SEO</rdf:li><rdf:li>URL</rdf:li><rdf:li>URL parsing</rdf:li><rdf:li>URL normalization</rdf:li></rdf:Bag></dc:subject>
<dc:contributor>Name set in IBM Plex Mono (SIL Open Font License 1.1), converted to outlines.</dc:contributor>
<dcterms:alternative>rurl logo</dcterms:alternative>
<dcterms:created>2026-10-04</dcterms:created>
<dcterms:modified>2026-10-05</dcterms:modified>
<dcterms:dateCopyrighted>2026</dcterms:dateCopyrighted>
<dcterms:rightsHolder>Bart Turczynski</dcterms:rightsHolder>
<dcterms:license rdf:resource="https://opensource.org/license/mit"/>
<dcterms:accessRights>Public</dcterms:accessRights>
<dcterms:audience>R users</dcterms:audience>
<dcterms:isPartOf rdf:resource="https://gitlab.com/bart-turczynski/seor"/>
<cc:license rdf:resource="https://opensource.org/license/mit"/>
<cc:attributionName>Bart Turczynski</cc:attributionName>
<cc:attributionURL rdf:resource="https://gitlab.com/bart-turczynski/rurl"/>
</cc:Work>
</rdf:RDF>
<x:xmpmeta xmlns:x="adobe:ns:meta/"><rdf:RDF xmlns:rdf="http://www.w3.org/1999/02/22-rdf-syntax-ns#">
<rdf:Description rdf:about="" xmlns:dc="http://purl.org/dc/elements/1.1/" xmlns:xmp="http://ns.adobe.com/xap/1.0/" xmlns:xmpRights="http://ns.adobe.com/xap/1.0/rights/" xmlns:xmpMM="http://ns.adobe.com/xap/1.0/mm/" xmlns:stRef="http://ns.adobe.com/xap/1.0/sType/ResourceRef#" xmlns:photoshop="http://ns.adobe.com/photoshop/1.0/" xmlns:Iptc4xmpCore="http://iptc.org/std/Iptc4xmpCore/1.0/xmlns/" xmlns:plus="http://ns.useplus.org/ldf/xmp/1.0/" xmlns:cc="http://creativecommons.org/ns#">
<dc:title><rdf:Alt><rdf:li xml:lang="x-default">rurl</rdf:li></rdf:Alt></dc:title>
<dc:description><rdf:Alt><rdf:li xml:lang="x-default">Logo of the rurl library for R, white text on a black background</rdf:li></rdf:Alt></dc:description>
<dc:creator><rdf:Seq><rdf:li>Bart Turczynski</rdf:li></rdf:Seq></dc:creator>
<dc:publisher><rdf:Bag><rdf:li>Bart Turczynski</rdf:li></rdf:Bag></dc:publisher>
<dc:contributor><rdf:Bag><rdf:li>Name set in IBM Plex Mono (SIL Open Font License 1.1), converted to outlines.</rdf:li></rdf:Bag></dc:contributor>
<dc:rights><rdf:Alt><rdf:li xml:lang="x-default">&#169; 2026 Bart Turczynski. MIT License.</rdf:li></rdf:Alt></dc:rights>
<dc:subject><rdf:Bag><rdf:li>R</rdf:li><rdf:li>rstats</rdf:li><rdf:li>R package</rdf:li><rdf:li>SEO</rdf:li><rdf:li>URL</rdf:li><rdf:li>URL parsing</rdf:li><rdf:li>URL normalization</rdf:li></rdf:Bag></dc:subject>
<dc:source>https://gitlab.com/bart-turczynski/rurl</dc:source>
<dc:relation><rdf:Bag><rdf:li>https://gitlab.com/bart-turczynski/rurl</rdf:li><rdf:li>https://github.com/bart-turczynski/rurl</rdf:li><rdf:li>https://CRAN.R-project.org/package=rurl</rdf:li><rdf:li>https://bart-turczynski.r-universe.dev/rurl</rdf:li><rdf:li>https://bart-turczynski.gitlab.io/rurl/</rdf:li><rdf:li>https://doi.org/10.5281/zenodo.20972584</rdf:li></rdf:Bag></dc:relation>
<dc:identifier>rurl</dc:identifier>
<dc:format>image/svg+xml</dc:format>
<dc:language><rdf:Bag><rdf:li>en-US</rdf:li></rdf:Bag></dc:language>
<dc:type><rdf:Bag><rdf:li>Image</rdf:li><rdf:li>StillImage</rdf:li></rdf:Bag></dc:type>
<dc:date><rdf:Seq><rdf:li>2026-10-04</rdf:li></rdf:Seq></dc:date>
<xmp:CreateDate>2026-10-04</xmp:CreateDate>
<xmp:ModifyDate>2026-10-05</xmp:ModifyDate>
<xmp:MetadataDate>2026-10-05</xmp:MetadataDate>
<xmp:CreatorTool>Claude Design</xmp:CreatorTool>
<xmp:Label>seor fleet</xmp:Label>
<xmp:Nickname>rurl logo</xmp:Nickname>
<xmp:Identifier><rdf:Bag><rdf:li>https://gitlab.com/bart-turczynski/rurl/-/raw/main/man/figures/logo.svg</rdf:li><rdf:li>https://gitlab.com/bart-turczynski/rurl</rdf:li><rdf:li>https://github.com/bart-turczynski/rurl</rdf:li><rdf:li>https://CRAN.R-project.org/package=rurl</rdf:li><rdf:li>https://bart-turczynski.r-universe.dev/rurl</rdf:li><rdf:li>https://bart-turczynski.gitlab.io/rurl/</rdf:li><rdf:li>https://doi.org/10.5281/zenodo.20972584</rdf:li></rdf:Bag></xmp:Identifier>
<xmpRights:Marked>True</xmpRights:Marked>
<xmpRights:WebStatement>https://opensource.org/license/mit</xmpRights:WebStatement>
<xmpRights:UsageTerms><rdf:Alt><rdf:li xml:lang="x-default">Licensed under the MIT License: https://opensource.org/license/mit</rdf:li></rdf:Alt></xmpRights:UsageTerms>
<xmpRights:Owner><rdf:Bag><rdf:li>Bart Turczynski</rdf:li></rdf:Bag></xmpRights:Owner>
<xmpMM:DocumentID>uuid:57082307-eaa6-501e-9c40-aa8ddc45e8a0</xmpMM:DocumentID>
<xmpMM:OriginalDocumentID>uuid:57082307-eaa6-501e-9c40-aa8ddc45e8a0</xmpMM:OriginalDocumentID>
<xmpMM:InstanceID>uuid:cf2c456b-52ad-5e9f-bb4b-68a5d6a8f2ad</xmpMM:InstanceID>
<photoshop:Headline>rurl: URL library for R</photoshop:Headline>
<photoshop:Credit>Bart Turczynski</photoshop:Credit>
<photoshop:Source>Bart Turczynski</photoshop:Source>
<photoshop:AuthorsPosition>Maintainer</photoshop:AuthorsPosition>
<photoshop:CaptionWriter>Bart Turczynski</photoshop:CaptionWriter>
<photoshop:DateCreated>2026-10-04</photoshop:DateCreated>
<Iptc4xmpCore:AltTextAccessibility><rdf:Alt><rdf:li xml:lang="x-default">Logo of the rurl library for R, white text on a black background</rdf:li></rdf:Alt></Iptc4xmpCore:AltTextAccessibility>
<Iptc4xmpCore:ExtDescrAccessibility><rdf:Alt><rdf:li xml:lang="x-default">A black hexagon with a thin white border. The package name, rurl, is set across the center in white capital letters, with the R that marks it as an R package in a lighter weight than the rest.</rdf:li></rdf:Alt></Iptc4xmpCore:ExtDescrAccessibility>
<Iptc4xmpCore:IntellectualGenre>logo</Iptc4xmpCore:IntellectualGenre>
<Iptc4xmpCore:CreatorContactInfo rdf:parseType="Resource"><Iptc4xmpCore:CiEmailWork>bartek@turczynski.pl</Iptc4xmpCore:CiEmailWork><Iptc4xmpCore:CiUrlWork>https://gitlab.com/bart-turczynski/rurl</Iptc4xmpCore:CiUrlWork></Iptc4xmpCore:CreatorContactInfo>
<plus:Licensor><rdf:Seq><rdf:li rdf:parseType="Resource"><plus:LicensorName>Bart Turczynski</plus:LicensorName><plus:LicensorURL>https://gitlab.com/bart-turczynski/rurl</plus:LicensorURL><plus:LicensorEmail>bartek@turczynski.pl</plus:LicensorEmail></rdf:li></rdf:Seq></plus:Licensor>
<plus:CopyrightOwner><rdf:Seq><rdf:li rdf:parseType="Resource"><plus:CopyrightOwnerName>Bart Turczynski</plus:CopyrightOwnerName></rdf:li></rdf:Seq></plus:CopyrightOwner>
<plus:ImageCreator><rdf:Seq><rdf:li rdf:parseType="Resource"><plus:ImageCreatorName>Bart Turczynski</plus:ImageCreatorName></rdf:li></rdf:Seq></plus:ImageCreator>
<plus:ModelReleaseStatus>http://ns.useplus.org/ldf/vocab/MR-NAP</plus:ModelReleaseStatus>
<plus:PropertyReleaseStatus>http://ns.useplus.org/ldf/vocab/PR-NAP</plus:PropertyReleaseStatus>
<cc:license rdf:resource="https://opensource.org/license/mit"/>
<cc:attributionName>Bart Turczynski</cc:attributionName>
<cc:attributionURL rdf:resource="https://gitlab.com/bart-turczynski/rurl"/>
</rdf:Description></rdf:RDF></x:xmpmeta>
</metadata>
<path id="rurl-border" fill="#F5F5F5" d="M866 0L1732 500L1732 1500L866 2000L0 1500L0 500Z"></path>
<path id="rurl-background" fill="#000000" d="M866 69.3L1672 534.6L1672 1465.4L866 1930.7L60 1465.4L60 534.6Z"></path>
<path id="rurl-name-bold" fill="#F5F5F5" d="M744.7 924.6L777.1 924.6L777.1 1020.1Q777.1 1027.2 777.7 1033.2Q778.2 1039.1 780.2 1043.2Q782.3 1047.3 786.4 1049.6Q790.5 1051.8 797.6 1051.8L797.6 1051.8Q804.8 1051.8 808.9 1049.6Q813.0 1047.3 815.0 1043.2Q817.1 1039.1 817.6 1033.2Q818.2 1027.2 818.2 1020.1L818.2 1020.1L818.2 924.6L850.6 924.6L850.6 1015.8Q850.6 1031.3 848.5 1043.0Q846.5 1054.6 840.6 1062.4Q834.8 1070.2 824.4 1074.1Q814.1 1078.0 797.6 1078.0L797.6 1078.0Q781.2 1078.0 770.9 1074.1Q760.5 1070.2 754.7 1062.4Q748.8 1054.6 746.8 1043.0Q744.7 1031.3 744.7 1015.8L744.7 1015.8L744.7 924.6ZM910.8 1019.4L910.8 1075.4L878.9 1075.4L878.9 924.6L937.2 924.6Q948.2 924.6 956.8 928.0Q965.5 931.3 971.4 937.6Q977.3 943.8 980.4 952.7Q983.4 961.6 983.4 972.6L983.4 972.6Q983.4 988.6 976.5 1000Q969.6 1011.4 956.8 1015.1L956.8 1015.1L986.4 1075.4L951.0 1075.4L925.7 1019.4L910.8 1019.4ZM910.8 994.4L929.4 994.4Q940.8 994.4 945.3 990.1Q949.7 985.7 949.7 975.8L949.7 975.8L949.7 969.3Q949.7 959.4 945.3 955.1Q940.8 950.8 929.4 950.8L929.4 950.8L910.8 950.8L910.8 994.4ZM1109.3 1075.4L1011.9 1075.4L1011.9 924.6L1044.5 924.6L1044.5 1048.8L1109.3 1048.8L1109.3 1075.4Z"></path>
<path id="rurl-name-regular" fill="#F5F5F5" d="M640.8 1011.0L640.8 1075.4L622.7 1075.4L622.7 924.6L677.5 924.6Q698.5 924.6 709.5 936.1Q720.5 947.5 720.5 968.0L720.5 968.0Q720.5 986.4 711.0 997.4Q701.5 1008.4 683.4 1010.2L683.4 1010.2L721.8 1075.4L701.5 1075.4L664.8 1011.0L640.8 1011.0ZM640.8 995.7L677.1 995.7Q688.6 995.7 694.9 990.0Q701.3 984.2 701.3 973.6L701.3 973.6L701.3 962.4Q701.3 951.8 694.9 946.1Q688.6 940.4 677.1 940.4L677.1 940.4L640.8 940.4L640.8 995.7Z"></path>
</svg>
